# xmcd
#
# Track frame offsets:
#	150
#	31552
#	47720
#	66310
#	95520
#	109720
#	128212
#	143112
#	163220
#	180340
#	208200
#
# Disc length: 3014 seconds
#
# Revision: 1
# Processed by: cddbd v1.5.2PL0 Copyright (c) Steve Scherf et al.
# Submitted via: audiograbber 1.83.01
#
DISCID=980bc40b
DTITLE=Keith Thompson - Reputation
DYEAR=1995
DGENRE=Blues
TTITLE0=SHOWDOWN
TTITLE1=WHO SAYS A WHITE MAN CAN'T GET THE BLUES?
TTITLE2=ALL MY FRIENDS ARE GONE
TTITLE3=STREET OF DOLD
TTITLE4=PROMISED LAND
TTITLE5=PARTY TONIGHT
TTITLE6=WHO CARES IF EW'RE RIGHT?
TTITLE7=REPUTATION
TTITLE8=CONDITIONAL LOVE
TTITLE9=I SURRENDER
TTITLE10=THE BLUES DON'T LOVE YOU
EXTD=
EXTT0=
EXTT1=
EXTT2=
EXTT3=
EXTT4=
EXTT5=
EXTT6=
EXTT7=
EXTT8=
EXTT9=
EXTT10=
PLAYORDER=
